<?xml version="1.0" encoding="UTF-8"?>
<!DOCTYPE svg PUBLIC "-//W3C//DTD SVG 1.1//EN" "http://www.w3.org/Graphics/SVG/1.1/DTD/svg11.dtd">
<svg xmlns="http://www.w3.org/2000/svg" version="1.1" width="500px" height="500px" style="shape-rendering:geometricPrecision; text-rendering:geometricPrecision; image-rendering:optimizeQuality; fill-rule:evenodd; clip-rule:evenodd" xmlns:xlink="http://www.w3.org/1999/xlink">
<g><path style="opacity:0.994" fill="#010101" d="M 234.5,7.5 C 320.195,5.10795 389.695,37.1079 443,103.5C 493.444,175.03 504.444,252.364 476,335.5C 444.689,411.574 389.522,461.074 310.5,484C 230.005,502.453 157.672,486.12 93.5,435C 25.6479,374.134 -1.85208,298.3 11,207.5C 27.1422,127.048 71.6422,68.2147 144.5,31C 173.155,17.5097 203.155,9.67634 234.5,7.5 Z"/></g>
<g><path style="opacity:1" fill="#fa3030" d="M 158.5,180.5 C 159.167,181.5 159.833,182.5 160.5,183.5C 163.354,200.352 173.02,211.185 189.5,216C 205.375,218.034 220.709,216.034 235.5,210C 262.179,198.338 283.179,180.171 298.5,155.5C 295.325,143.477 291.658,131.643 287.5,120C 281.5,118.5 275.5,117 269.5,115.5C 264.299,119.466 259.132,119.466 254,115.5C 250.54,107.956 252.873,103.289 261,101.5C 262.888,101.796 264.722,102.296 266.5,103C 268.291,105.414 269.957,107.914 271.5,110.5C 277.361,112.635 283.361,113.801 289.5,114C 292.412,112.627 295.246,111.127 298,109.5C 297.012,115.131 295.845,120.798 294.5,126.5C 296.675,136.199 299.008,145.866 301.5,155.5C 300.397,158.438 299.064,161.271 297.5,164C 298.576,170.41 302.243,172.743 308.5,171C 313.833,166.667 313.833,162.333 308.5,158C 307.207,157.51 305.873,157.343 304.5,157.5C 304.244,155.063 303.577,152.729 302.5,150.5C 313.953,132.692 318.453,113.359 316,92.5C 311.846,75.0127 301.013,64.1794 283.5,60C 273.388,59.2085 263.388,59.5418 253.5,61C 275.793,49.772 298.46,48.772 321.5,58C 340.203,70.3894 348.37,87.8894 346,110.5C 341.804,139.888 329.804,165.555 310,187.5C 286.375,214.896 256.875,232.396 221.5,240C 178.583,243.228 157.583,223.395 158.5,180.5 Z"/></g>
<g><path style="opacity:1" fill="#f52f2f" d="M 225.5,61.5 C 236.104,60.2902 246.437,61.9568 256.5,66.5C 258.533,69.5318 261.2,71.8651 264.5,73.5C 269.517,69.0308 273.684,69.6974 277,75.5C 278.126,81.2477 275.792,84.581 270,85.5C 264.762,84.5455 261.929,81.3789 261.5,76C 253.649,71.8572 245.649,71.6906 237.5,75.5C 236.363,77.6068 235.363,79.7735 234.5,82C 237.635,87.7707 240.635,93.604 243.5,99.5C 237.235,102.646 230.735,105.313 224,107.5C 222.347,107.18 221.347,106.18 221,104.5C 218.972,98.944 216.805,93.444 214.5,88C 214.645,87.228 214.978,86.5613 215.5,86C 220.763,84.1847 226.097,82.6847 231.5,81.5C 231.924,78.646 232.924,75.9793 234.5,73.5C 231.479,69.4319 228.479,65.4319 225.5,61.5 Z"/></g>
<g><path style="opacity:1" fill="#f62f2f" d="M 197.5,65.5 C 198.675,65.281 199.675,65.6143 200.5,66.5C 203.038,72.4083 205.705,78.2416 208.5,84C 202.759,86.9535 196.925,89.7869 191,92.5C 190.055,92.0946 189.388,91.428 189,90.5C 187.895,84.8064 186.728,79.1397 185.5,73.5C 189.185,70.3269 193.185,67.6602 197.5,65.5 Z"/></g>
<g><path style="opacity:1" fill="#0c0201" d="M 268.5,75.5 C 269.833,75.5 271.167,75.5 272.5,75.5C 272.5,77.1667 272.5,78.8333 272.5,80.5C 268.065,81.0776 266.732,79.4109 268.5,75.5 Z"/></g>
<g><path style="opacity:1" fill="#f7f7f7" d="M 181.5,75.5 C 184.128,81.8172 185.295,88.4838 185,95.5C 180.62,99.548 175.954,103.215 171,106.5C 169.725,100.207 169.392,93.8736 170,87.5C 173.364,82.9715 177.197,78.9715 181.5,75.5 Z"/></g>
<g><path style="opacity:1" fill="#e7e7e7" d="M 199.5,89.5 C 200.822,89.33 201.989,89.6634 203,90.5C 203.735,92.8713 204.568,95.2046 205.5,97.5C 200.721,97.5329 196.054,96.3662 191.5,94C 194.391,92.7258 197.058,91.2258 199.5,89.5 Z"/></g>
<g><path style="opacity:1" fill="#ee2d2d" d="M 164.5,93.5 C 166.047,98.9489 166.547,104.616 166,110.5C 162,113.833 158,117.167 154,120.5C 155.235,110.685 158.735,101.685 164.5,93.5 Z"/></g>
<g><path style="opacity:1" fill="#f62f2f" d="M 185.5,100.5 C 186.497,100.47 187.164,100.97 187.5,102C 189.011,108.044 190.678,114.044 192.5,120C 186.699,124.072 180.699,127.905 174.5,131.5C 172.182,124.613 171.516,117.613 172.5,110.5C 176.876,107.112 181.209,103.778 185.5,100.5 Z"/></g>
<g><path style="opacity:1" fill="#e8e8e8" d="M 232.5,105.5 C 233.675,105.281 234.675,105.614 235.5,106.5C 236.482,109.096 237.149,111.762 237.5,114.5C 232.938,113.219 228.604,111.386 224.5,109C 227.374,108.058 230.04,106.891 232.5,105.5 Z"/></g>
<g><path style="opacity:1" fill="#ededed" d="M 204.5,106.5 C 205.496,106.414 206.329,106.748 207,107.5C 208.039,109.746 209.206,111.913 210.5,114C 207.531,115.484 204.531,116.984 201.5,118.5C 201.167,118.167 200.833,117.833 200.5,117.5C 202.132,113.91 203.466,110.243 204.5,106.5 Z"/></g>
<g><path style="opacity:1" fill="#f5f5f5" d="M 216.5,113.5 C 217.822,113.33 218.989,113.663 220,114.5C 222.196,119.42 224.196,124.42 226,129.5C 226.519,130.516 227.353,131.182 228.5,131.5C 233.366,132.339 238.199,133.339 243,134.5C 245.765,132.759 248.765,131.426 252,130.5C 261.819,132.973 263.986,138.473 258.5,147C 250.097,150.8 245.097,148.3 243.5,139.5C 237.083,138.646 230.749,137.313 224.5,135.5C 218.631,137.513 212.965,140.013 207.5,143C 206.365,143.749 205.365,143.583 204.5,142.5C 202.26,135.945 199.927,129.445 197.5,123C 203.894,119.803 210.227,116.636 216.5,113.5 Z"/></g>
<g><path style="opacity:1" fill="#f62f2f" d="M 165.5,114.5 C 166.725,115.152 167.392,116.319 167.5,118C 168.085,122.68 168.752,127.346 169.5,132C 169.167,132.833 168.833,133.667 168.5,134.5C 163.167,137.5 157.833,140.5 152.5,143.5C 151.336,137.528 151.17,131.528 152,125.5C 156.478,121.695 160.978,118.028 165.5,114.5 Z"/></g>
<g><path style="opacity:1" fill="#f82f2f" d="M 192.5,125.5 C 193.75,125.577 194.583,126.244 195,127.5C 196.934,133.136 198.767,138.802 200.5,144.5C 200.167,145.167 199.833,145.833 199.5,146.5C 193.5,149.167 187.5,151.833 181.5,154.5C 178.14,148.118 176.473,141.451 176.5,134.5C 182.22,131.979 187.553,128.979 192.5,125.5 Z"/></g>
<g><path style="opacity:1" fill="#161616" d="M 249.5,135.5 C 253.756,134.454 256.422,135.954 257.5,140C 255.949,144.245 253.116,145.412 249,143.5C 247.089,140.722 247.255,138.056 249.5,135.5 Z"/></g>
<g><path style="opacity:1" fill="#f7f7f7" d="M 169.5,137.5 C 170.117,137.611 170.617,137.944 171,138.5C 172.196,143.92 173.696,149.254 175.5,154.5C 175.167,155.167 174.833,155.833 174.5,156.5C 168.592,159.038 162.758,161.705 157,164.5C 153.598,158.898 152.431,152.898 153.5,146.5C 159.22,143.979 164.553,140.979 169.5,137.5 Z"/></g>
<g><path style="opacity:1" fill="#f5f5f5" d="M 221.5,145.5 C 226.955,144.888 230.288,147.222 231.5,152.5C 236.745,155.039 241.912,157.706 247,160.5C 253.018,157.739 259.185,155.406 265.5,153.5C 267.725,161.345 270.059,169.178 272.5,177C 267.755,182.205 262.422,186.705 256.5,190.5C 252.466,182.253 248.799,173.753 245.5,165C 240.833,162.667 236.167,160.333 231.5,158C 228.924,157.394 226.59,157.894 224.5,159.5C 218.847,158.359 216.68,155.026 218,149.5C 218.69,147.65 219.856,146.316 221.5,145.5 Z"/></g>
<g><path style="opacity:1" fill="#171717" d="M 221.5,149.5 C 226.159,149.015 227.492,150.848 225.5,155C 224.216,155.684 223.049,155.517 222,154.5C 221.506,152.866 221.34,151.199 221.5,149.5 Z"/></g>
<g><path style="opacity:1" fill="#f7f7f7" d="M 199.5,151.5 C 200.978,151.238 202.311,151.571 203.5,152.5C 205.705,157.741 208.038,162.908 210.5,168C 203.993,170.603 197.326,172.77 190.5,174.5C 188.295,173.115 186.795,171.115 186,168.5C 184.361,165.258 183.361,161.924 183,158.5C 188.624,156.243 194.124,153.91 199.5,151.5 Z"/></g>
<g><path style="opacity:1" fill="#f72f2f" d="M 176.5,160.5 C 177.376,160.369 178.043,160.702 178.5,161.5C 180.456,166.377 182.789,171.044 185.5,175.5C 179.756,178.107 173.756,180.107 167.5,181.5C 163.396,178.041 160.396,173.708 158.5,168.5C 164.26,165.287 170.26,162.62 176.5,160.5 Z"/></g>
<g><path style="opacity:1" fill="#f62f2f" d="M 210.5,173.5 C 211.822,173.33 212.989,173.663 214,174.5C 217.471,180.436 220.638,186.436 223.5,192.5C 216.428,192.762 209.428,193.262 202.5,194C 198.076,189.095 194.743,183.595 192.5,177.5C 198.748,176.769 204.748,175.435 210.5,173.5 Z"/></g>
<g><path style="opacity:1" fill="#881a1a" d="M 160.5,183.5 C 159.833,182.5 159.167,181.5 158.5,180.5C 158.343,179.127 158.51,177.793 159,176.5C 159.977,178.74 160.477,181.073 160.5,183.5 Z"/></g>
<g><path style="opacity:1" fill="#f62f2f" d="M 182.5,180.5 C 184.527,180.338 186.527,180.505 188.5,181C 191.833,185.667 195.167,190.333 198.5,195C 193.319,195.793 188.152,196.627 183,197.5C 177.37,194.371 172.87,190.037 169.5,184.5C 174.062,183.532 178.395,182.199 182.5,180.5 Z"/></g>
<g><path style="opacity:1" fill="#f6f6f6" d="M 209.5,196.5 C 215.509,196.334 221.509,196.501 227.5,197C 229.032,199.034 230.365,201.201 231.5,203.5C 226.534,206.494 221.2,207.994 215.5,208C 212.167,204.667 208.833,201.333 205.5,198C 207.058,197.79 208.391,197.29 209.5,196.5 Z"/></g>
<g><path style="opacity:1" fill="#f2f2f2" d="M 187.5,198.5 C 192.179,198.334 196.845,198.501 201.5,199C 204.682,202.349 208.015,205.516 211.5,208.5C 207.016,209.742 202.683,209.242 198.5,207C 194.007,204.921 189.674,202.588 185.5,200C 186.416,199.722 187.082,199.222 187.5,198.5 Z"/></g>
<g><path style="opacity:1" fill="#fcfcfc" d="M 48.5,256.5 C 52.8333,256.5 57.1667,256.5 61.5,256.5C 61.5,274.833 61.5,293.167 61.5,311.5C 72.5,311.5 83.5,311.5 94.5,311.5C 94.5,315.5 94.5,319.5 94.5,323.5C 79.1667,323.5 63.8333,323.5 48.5,323.5C 48.5,301.167 48.5,278.833 48.5,256.5 Z"/></g>
<g><path style="opacity:1" fill="#fcfcfc" d="M 235.5,276.5 C 235.783,277.289 236.283,277.956 237,278.5C 237.5,271.508 237.666,264.508 237.5,257.5C 241.634,256.515 245.968,256.182 250.5,256.5C 250.5,278.833 250.5,301.167 250.5,323.5C 246.167,323.5 241.833,323.5 237.5,323.5C 238.187,317.401 236.854,316.901 233.5,322C 222.197,326.564 213.697,323.397 208,312.5C 204.709,303.152 204.709,293.819 208,284.5C 214.663,273.121 223.83,270.454 235.5,276.5 Z"/></g>
<g><path style="opacity:1" fill="#f9f9f9" d="M 298.5,296.5 C 298.56,297.043 298.893,297.376 299.5,297.5C 300.499,283.85 300.833,270.183 300.5,256.5C 304.833,256.5 309.167,256.5 313.5,256.5C 313.5,278.833 313.5,301.167 313.5,323.5C 308.901,323.8 304.401,323.467 300,322.5C 291.903,309.304 284.07,295.97 276.5,282.5C 276.44,281.957 276.107,281.624 275.5,281.5C 274.501,295.484 274.167,309.484 274.5,323.5C 270.233,323.797 266.066,323.464 262,322.5C 261.5,300.503 261.333,278.503 261.5,256.5C 266.214,256.173 270.88,256.507 275.5,257.5C 283.43,270.363 291.097,283.363 298.5,296.5 Z"/></g>
<g><path style="opacity:1" fill="#868686" d="M 300.5,256.5 C 300.833,270.183 300.499,283.85 299.5,297.5C 298.893,297.376 298.56,297.043 298.5,296.5C 299.167,283.167 299.833,269.833 300.5,256.5 Z"/></g>
<g><path style="opacity:1" fill="#424242" d="M 237.5,257.5 C 237.666,264.508 237.5,271.508 237,278.5C 236.283,277.956 235.783,277.289 235.5,276.5C 236.167,270.167 236.833,263.833 237.5,257.5 Z"/></g>
<g><path style="opacity:1" fill="#fbfbfb" d="M 429.5,261.5 C 433.833,261.5 438.167,261.5 442.5,261.5C 442.5,265.833 442.5,270.167 442.5,274.5C 446.167,274.5 449.833,274.5 453.5,274.5C 453.665,277.85 453.498,281.183 453,284.5C 449.606,285.456 446.106,285.789 442.5,285.5C 442.334,293.174 442.5,300.841 443,308.5C 443.374,309.416 443.874,310.25 444.5,311C 446.833,311.333 449.167,311.667 451.5,312C 452.833,315.667 452.833,319.333 451.5,323C 446.079,323.839 440.746,323.506 435.5,322C 433.714,321.215 432.214,320.049 431,318.5C 429.591,307.23 429.091,295.896 429.5,284.5C 427.167,284.5 424.833,284.5 422.5,284.5C 422.5,281.167 422.5,277.833 422.5,274.5C 424.833,274.5 427.167,274.5 429.5,274.5C 429.5,270.167 429.5,265.833 429.5,261.5 Z"/></g>
<g><path style="opacity:1" fill="#f7f7f7" d="M 117.5,273.5 C 132.794,271.312 142.294,277.645 146,292.5C 146.499,296.152 146.665,299.818 146.5,303.5C 136.167,303.5 125.833,303.5 115.5,303.5C 115.245,307.493 116.911,310.326 120.5,312C 127.043,313.619 132.71,312.119 137.5,307.5C 140.167,309.5 142.5,311.833 144.5,314.5C 136.1,324.681 125.766,327.181 113.5,322C 106.504,317.848 102.67,311.681 102,303.5C 99.1552,289.121 104.322,279.121 117.5,273.5 Z"/></g>
<g><path style="opacity:1" fill="#f9f9f9" d="M 175.5,273.5 C 184.08,271.879 190.914,274.546 196,281.5C 197.447,295.427 197.947,309.427 197.5,323.5C 193.167,323.5 188.833,323.5 184.5,323.5C 184.667,312.495 184.5,301.495 184,290.5C 181.565,285.776 177.731,284.276 172.5,286C 171.333,287.167 170.167,288.333 169,289.5C 168.5,300.828 168.333,312.162 168.5,323.5C 163.901,323.8 159.401,323.467 155,322.5C 154.5,306.503 154.333,290.503 154.5,274.5C 159.167,274.5 163.833,274.5 168.5,274.5C 168.343,275.873 168.51,277.207 169,278.5C 170.965,276.45 173.132,274.783 175.5,273.5 Z"/></g>
<g><path style="opacity:1" fill="#f9f9f9" d="M 367.5,302.5 C 357.167,302.5 346.833,302.5 336.5,302.5C 336.263,303.791 336.596,304.791 337.5,305.5C 337.84,308.675 339.507,310.841 342.5,312C 348.877,313.521 354.377,312.021 359,307.5C 361.376,310.045 363.876,312.378 366.5,314.5C 361.217,321.27 354.217,324.603 345.5,324.5C 334.275,323.448 327.108,317.448 324,306.5C 320.178,291.585 325.011,280.752 338.5,274C 356.76,271.587 366.76,279.587 368.5,298C 368.492,299.707 368.158,301.207 367.5,302.5 Z"/></g>
<g><path style="opacity:1" fill="#f5f5f5" d="M 388.5,273.5 C 397.587,272.054 405.753,274.054 413,279.5C 415.758,282.338 416.758,285.671 416,289.5C 411.934,290.464 407.767,290.797 403.5,290.5C 404.035,287.762 403.035,285.928 400.5,285C 397.5,284.333 394.5,284.333 391.5,285C 388.007,286.478 387.674,288.478 390.5,291C 395.728,292.974 401.062,294.641 406.5,296C 417.742,300.641 420.242,308.141 414,318.5C 401.113,327.054 388.78,326.388 377,316.5C 375.711,313.649 375.211,310.649 375.5,307.5C 379.833,307.5 384.167,307.5 388.5,307.5C 387.965,310.238 388.965,312.072 391.5,313C 394.833,313.667 398.167,313.667 401.5,313C 404.033,310.916 404.033,308.916 401.5,307C 394.121,305.318 387.121,302.652 380.5,299C 374.957,293.49 374.124,287.323 378,280.5C 381.154,277.488 384.654,275.155 388.5,273.5 Z"/></g>
<g><path style="opacity:1" fill="#070707" d="M 119.5,285.5 C 126.958,283.429 131.291,286.096 132.5,293.5C 126.833,293.5 121.167,293.5 115.5,293.5C 115.343,292.127 115.51,290.793 116,289.5C 117.376,288.295 118.542,286.962 119.5,285.5 Z"/></g>
<g><path style="opacity:1" fill="#0b0b0b" d="M 225.5,285.5 C 231.862,284.594 235.695,287.26 237,293.5C 238.479,300.77 236.646,306.937 231.5,312C 224.456,312.971 220.623,309.804 220,302.5C 218.376,295.54 220.21,289.873 225.5,285.5 Z"/></g>
<g><path style="opacity:1" fill="#0a0a0a" d="M 341.5,285.5 C 348.695,283.916 353.029,286.583 354.5,293.5C 348.833,293.5 343.167,293.5 337.5,293.5C 337.278,289.944 338.611,287.277 341.5,285.5 Z"/></g>
<g><path style="opacity:1" fill="#a0a0a0" d="M 367.5,302.5 C 357.292,302.842 347.292,303.842 337.5,305.5C 336.596,304.791 336.263,303.791 336.5,302.5C 346.833,302.5 357.167,302.5 367.5,302.5 Z"/></g>
<g><path style="opacity:1" fill="#bebebe" d="M 276.5,282.5 C 275.833,296.167 275.167,309.833 274.5,323.5C 274.167,309.484 274.501,295.484 275.5,281.5C 276.107,281.624 276.44,281.957 276.5,282.5 Z"/></g>
<g><path style="opacity:1" fill="#a2a2a2" d="M 81.5,343.5 C 82.8221,343.33 83.9887,343.663 85,344.5C 86,346.5 87,348.5 88,350.5C 89,348.5 90,346.5 91,344.5C 92.0495,343.483 93.2161,343.316 94.5,344C 90.6536,348.854 88.9869,354.354 89.5,360.5C 88.5,360.5 87.5,360.5 86.5,360.5C 86.6641,357.813 86.4974,355.146 86,352.5C 84.4734,349.447 82.9734,346.447 81.5,343.5 Z"/></g>
<g><path style="opacity:1" fill="#a1a1a1" d="M 106.5,343.5 C 109.97,342.875 112.804,343.875 115,346.5C 115.667,350.167 115.667,353.833 115,357.5C 111.287,361.487 107.62,361.487 104,357.5C 102.718,352.295 103.551,347.628 106.5,343.5 Z"/></g>
<g><path style="opacity:1" fill="#a4a4a4" d="M 125.5,343.5 C 127.275,347.386 128.108,351.72 128,356.5C 130,359.167 132,359.167 134,356.5C 134.499,352.179 134.666,347.846 134.5,343.5C 135.5,343.5 136.5,343.5 137.5,343.5C 137.666,347.846 137.499,352.179 137,356.5C 136.06,359.442 134.06,360.775 131,360.5C 128.966,360.646 127.299,359.98 126,358.5C 125.501,353.511 125.334,348.511 125.5,343.5 Z"/></g>
<g><path style="opacity:1" fill="#989898" d="M 147.5,343.5 C 150.518,343.335 153.518,343.502 156.5,344C 160.359,347.27 160.359,350.603 156.5,354C 157.236,356.139 158.236,358.139 159.5,360C 158.5,360.667 157.5,360.667 156.5,360C 155.373,358.247 154.373,356.413 153.5,354.5C 152.675,353.614 151.675,353.281 150.5,353.5C 150.5,355.833 150.5,358.167 150.5,360.5C 149.5,360.5 148.5,360.5 147.5,360.5C 147.5,354.833 147.5,349.167 147.5,343.5 Z"/></g>
<g><path style="opacity:1" fill="#acacac" d="M 180.5,343.5 C 183.518,343.335 186.518,343.502 189.5,344C 193.327,351.363 190.993,354.529 182.5,353.5C 182.808,355.924 182.474,358.257 181.5,360.5C 180.505,354.872 180.171,349.206 180.5,343.5 Z"/></g>
<g><path style="opacity:1" fill="#979797" d="M 200.5,343.5 C 204.5,343.5 208.5,343.5 212.5,343.5C 212.5,344.5 212.5,345.5 212.5,346.5C 209.5,346.5 206.5,346.5 203.5,346.5C 203.5,347.833 203.5,349.167 203.5,350.5C 205.5,350.5 207.5,350.5 209.5,350.5C 209.5,351.5 209.5,352.5 209.5,353.5C 207.5,353.5 205.5,353.5 203.5,353.5C 203.5,355.167 203.5,356.833 203.5,358.5C 206.572,358.183 209.572,358.516 212.5,359.5C 208.555,360.491 204.555,360.824 200.5,360.5C 200.5,354.833 200.5,349.167 200.5,343.5 Z"/></g>
<g><path style="opacity:1" fill="#9b9b9b" d="M 221.5,343.5 C 225.584,343.043 229.417,343.71 233,345.5C 234.168,348.893 233.334,351.559 230.5,353.5C 231.877,355.289 232.877,357.289 233.5,359.5C 232.675,360.386 231.675,360.719 230.5,360.5C 230.554,356.22 228.554,353.886 224.5,353.5C 224.5,355.833 224.5,358.167 224.5,360.5C 223.5,360.5 222.5,360.5 221.5,360.5C 221.5,354.833 221.5,349.167 221.5,343.5 Z"/></g>
<g><path style="opacity:1" fill="#9d9d9d" d="M 245.5,343.5 C 247.527,343.338 249.527,343.505 251.5,344C 254.384,345.037 255.05,346.871 253.5,349.5C 251.412,347.135 248.746,346.135 245.5,346.5C 245.281,347.675 245.614,348.675 246.5,349.5C 249.189,350.557 251.689,351.89 254,353.5C 254.812,360.001 251.979,362.168 245.5,360C 243.393,358.736 242.393,356.903 242.5,354.5C 244.838,355.437 247.005,356.77 249,358.5C 251.5,357.667 252,356.167 250.5,354C 243.516,352.794 241.85,349.294 245.5,343.5 Z"/></g>
<g><path style="opacity:1" fill="#9d9d9d" d="M 267.5,343.5 C 271.355,342.845 274.188,344.179 276,347.5C 277.193,352.152 276.36,356.319 273.5,360C 269.219,361.458 266.053,360.292 264,356.5C 263.333,353.5 263.333,350.5 264,347.5C 264.69,345.65 265.856,344.316 267.5,343.5 Z"/></g>
<g><path style="opacity:1" fill="#a0a0a0" d="M 285.5,343.5 C 287.39,343.297 288.89,343.963 290,345.5C 294.917,356.493 296.75,355.827 295.5,343.5C 296.5,343.5 297.5,343.5 298.5,343.5C 298.5,349.167 298.5,354.833 298.5,360.5C 297.178,360.67 296.011,360.337 295,359.5C 293,356.167 291,352.833 289,349.5C 288.501,353.152 288.335,356.818 288.5,360.5C 287.5,360.5 286.5,360.5 285.5,360.5C 285.5,354.833 285.5,349.167 285.5,343.5 Z"/></g>
<g><path style="opacity:1" fill="#a0a0a0" d="M 312.5,343.5 C 313.978,343.238 315.311,343.571 316.5,344.5C 318.575,349.724 320.242,355.058 321.5,360.5C 320.5,360.5 319.5,360.5 318.5,360.5C 318.5,359.5 318.5,358.5 318.5,357.5C 314.679,356.814 311.512,357.814 309,360.5C 308.5,360.167 308,359.833 307.5,359.5C 309.171,354.154 310.838,348.821 312.5,343.5 Z"/></g>
<g><path style="opacity:1" fill="#a8a8a8" d="M 330.5,343.5 C 331.5,343.5 332.5,343.5 333.5,343.5C 333.5,348.5 333.5,353.5 333.5,358.5C 336.247,358.187 338.914,358.52 341.5,359.5C 337.893,360.489 334.226,360.823 330.5,360.5C 330.5,354.833 330.5,349.167 330.5,343.5 Z"/></g>
<g><path style="opacity:1" fill="#9b9b9b" d="M 351.5,343.5 C 352.5,343.5 353.5,343.5 354.5,343.5C 354.5,349.167 354.5,354.833 354.5,360.5C 353.5,360.5 352.5,360.5 351.5,360.5C 351.5,354.833 351.5,349.167 351.5,343.5 Z"/></g>
<g><path style="opacity:1" fill="#a1a1a1" d="M 363.5,343.5 C 367.167,343.5 370.833,343.5 374.5,343.5C 373.183,348.846 370.516,353.513 366.5,357.5C 369.167,358.167 371.833,358.833 374.5,359.5C 370.893,360.489 367.226,360.823 363.5,360.5C 365.025,355.786 367.359,351.453 370.5,347.5C 368.257,346.526 365.924,346.192 363.5,346.5C 363.5,345.5 363.5,344.5 363.5,343.5 Z"/></g>
<g><path style="opacity:1" fill="#969696" d="M 384.5,343.5 C 388.167,343.5 391.833,343.5 395.5,343.5C 395.5,344.5 395.5,345.5 395.5,346.5C 392.833,346.5 390.167,346.5 387.5,346.5C 387.5,347.833 387.5,349.167 387.5,350.5C 389.5,350.5 391.5,350.5 393.5,350.5C 393.5,351.5 393.5,352.5 393.5,353.5C 391.5,353.5 389.5,353.5 387.5,353.5C 387.5,354.833 387.5,356.167 387.5,357.5C 390.167,357.5 392.833,357.5 395.5,357.5C 395.5,358.5 395.5,359.5 395.5,360.5C 391.833,360.5 388.167,360.5 384.5,360.5C 384.5,354.833 384.5,349.167 384.5,343.5 Z"/></g>
<g><path style="opacity:1" fill="#989898" d="M 404.5,343.5 C 408.308,343.163 411.974,343.663 415.5,345C 416.833,349.667 416.833,354.333 415.5,359C 411.974,360.337 408.308,360.837 404.5,360.5C 404.5,354.833 404.5,349.167 404.5,343.5 Z"/></g>
<g><path style="opacity:1" fill="#080808" d="M 107.5,346.5 C 109.144,346.286 110.644,346.62 112,347.5C 112.789,351.091 112.622,354.591 111.5,358C 109.888,358.72 108.388,358.554 107,357.5C 106.245,353.745 106.411,350.078 107.5,346.5 Z"/></g>
<g><path style="opacity:1" fill="#050505" d="M 150.5,346.5 C 152.977,346.051 154.977,346.717 156.5,348.5C 154.977,350.283 152.977,350.949 150.5,350.5C 150.5,349.167 150.5,347.833 150.5,346.5 Z"/></g>
<g><path style="opacity:1" fill="#1d1d1d" d="M 182.5,345.5 C 187.479,344.65 189.479,346.483 188.5,351C 186.527,351.495 184.527,351.662 182.5,351.5C 182.5,349.5 182.5,347.5 182.5,345.5 Z"/></g>
<g><path style="opacity:1" fill="#161616" d="M 224.5,346.5 C 226.5,346.5 228.5,346.5 230.5,346.5C 230.938,350.908 228.938,352.575 224.5,351.5C 224.5,349.833 224.5,348.167 224.5,346.5 Z"/></g>
<g><path style="opacity:1" fill="#0e0e0e" d="M 267.5,346.5 C 269.467,346.261 271.301,346.594 273,347.5C 273.667,350.5 273.667,353.5 273,356.5C 271,359.167 269,359.167 267,356.5C 266.253,353.076 266.42,349.743 267.5,346.5 Z"/></g>
<g><path style="opacity:1" fill="#101010" d="M 407.5,346.5 C 409.5,346.5 411.5,346.5 413.5,346.5C 413.665,350.182 413.499,353.848 413,357.5C 411.301,358.406 409.467,358.739 407.5,358.5C 407.5,354.5 407.5,350.5 407.5,346.5 Z"/></g>
<g><path style="opacity:1" fill="#161616" d="M 313.5,347.5 C 315.693,349.522 316.693,352.189 316.5,355.5C 315.167,355.5 313.833,355.5 312.5,355.5C 312.833,352.833 313.167,350.167 313.5,347.5 Z"/></g>
<g><path style="opacity:1" fill="#b1b1b1" d="M 98.5,376.5 C 98.5,381.5 98.5,386.5 98.5,391.5C 101.5,391.5 104.5,391.5 107.5,391.5C 104.316,393.414 100.649,394.08 96.5,393.5C 95.8833,387.402 96.55,381.735 98.5,376.5 Z"/></g>
<g><path style="opacity:1" fill="#595959" d="M 98.5,376.5 C 96.55,381.735 95.8833,387.402 96.5,393.5C 100.649,394.08 104.316,393.414 107.5,391.5C 104.5,391.5 101.5,391.5 98.5,391.5C 98.5,386.5 98.5,381.5 98.5,376.5 Z"/></g>
<g><path style="opacity:1" fill="#a0a0a0" d="M 116.5,376.5 C 120.167,376.5 123.833,376.5 127.5,376.5C 127.5,377.5 127.5,378.5 127.5,379.5C 124.833,379.5 122.167,379.5 119.5,379.5C 119.5,380.833 119.5,382.167 119.5,383.5C 121.5,383.5 123.5,383.5 125.5,383.5C 125.5,384.5 125.5,385.5 125.5,386.5C 123.5,386.5 121.5,386.5 119.5,386.5C 119.5,388.167 119.5,389.833 119.5,391.5C 122.247,391.187 124.914,391.52 127.5,392.5C 123.893,393.489 120.226,393.823 116.5,393.5C 116.5,387.833 116.5,382.167 116.5,376.5 Z"/></g>
<g><path style="opacity:1" fill="#a7a7a7" d="M 137.5,376.5 C 138.675,376.281 139.675,376.614 140.5,377.5C 142.864,380.699 145.03,384.032 147,387.5C 147.175,383.789 147.675,380.122 148.5,376.5C 149.495,382.128 149.829,387.794 149.5,393.5C 148.325,393.719 147.325,393.386 146.5,392.5C 144.667,389.5 142.833,386.5 141,383.5C 140.502,386.817 140.335,390.15 140.5,393.5C 139.5,393.5 138.5,393.5 137.5,393.5C 137.5,387.833 137.5,382.167 137.5,376.5 Z"/></g>
<g><path style="opacity:1" fill="#989898" d="M 159.5,376.5 C 163.308,376.163 166.974,376.663 170.5,378C 171.833,382.667 171.833,387.333 170.5,392C 166.974,393.337 163.308,393.837 159.5,393.5C 159.5,387.833 159.5,382.167 159.5,376.5 Z"/></g>
<g><path style="opacity:1" fill="#a6a6a6" d="M 181.5,376.5 C 182.5,376.5 183.5,376.5 184.5,376.5C 184.5,382.167 184.5,387.833 184.5,393.5C 183.5,393.5 182.5,393.5 181.5,393.5C 181.5,387.833 181.5,382.167 181.5,376.5 Z"/></g>
<g><path style="opacity:1" fill="#a1a1a1" d="M 194.5,376.5 C 195.822,376.33 196.989,376.663 198,377.5C 200,380.833 202,384.167 204,387.5C 204.499,383.848 204.665,380.182 204.5,376.5C 205.5,376.5 206.5,376.5 207.5,376.5C 207.5,382.167 207.5,387.833 207.5,393.5C 205.61,393.703 204.11,393.037 203,391.5C 201.333,388.5 199.667,385.5 198,382.5C 197.501,386.152 197.335,389.818 197.5,393.5C 196.5,393.5 195.5,393.5 194.5,393.5C 194.5,387.833 194.5,382.167 194.5,376.5 Z"/></g>
<g><path style="opacity:1" fill="#9f9f9f" d="M 219.5,376.5 C 222.32,376.248 224.986,376.748 227.5,378C 228.38,379.356 228.714,380.856 228.5,382.5C 227.5,382.5 226.5,382.5 225.5,382.5C 225.5,381.5 225.5,380.5 225.5,379.5C 223.533,379.261 221.699,379.594 220,380.5C 219.333,383.5 219.333,386.5 220,389.5C 223.836,392.493 226.003,391.493 226.5,386.5C 225.022,386.762 223.689,386.429 222.5,385.5C 224.396,384.534 226.396,384.201 228.5,384.5C 229.834,392 226.834,394.833 219.5,393C 215.537,387.501 215.537,382.001 219.5,376.5 Z"/></g>
<g><path style="opacity:1" fill="#a4a4a4" d="M 249.5,376.5 C 250.5,376.5 251.5,376.5 252.5,376.5C 252.334,380.846 252.501,385.179 253,389.5C 255,392.167 257,392.167 259,389.5C 259.172,385.129 259.672,380.796 260.5,376.5C 261.662,381.467 261.829,386.467 261,391.5C 258.503,393.478 255.669,393.978 252.5,393C 251.299,392.097 250.465,390.931 250,389.5C 249.501,385.179 249.334,380.846 249.5,376.5 Z"/></g>
<g><path style="opacity:1" fill="#a0a0a0" d="M 271.5,376.5 C 273.39,376.297 274.89,376.963 276,378.5C 280.917,389.493 282.75,388.827 281.5,376.5C 282.5,376.5 283.5,376.5 284.5,376.5C 284.5,382.167 284.5,387.833 284.5,393.5C 283.178,393.67 282.011,393.337 281,392.5C 279,389.167 277,385.833 275,382.5C 274.501,386.152 274.335,389.818 274.5,393.5C 273.5,393.5 272.5,393.5 271.5,393.5C 271.5,387.833 271.5,382.167 271.5,376.5 Z"/></g>
<g><path style="opacity:1" fill="#a7a7a7" d="M 294.5,376.5 C 295.5,376.5 296.5,376.5 297.5,376.5C 297.5,382.167 297.5,387.833 297.5,393.5C 296.5,393.5 295.5,393.5 294.5,393.5C 294.5,387.833 294.5,382.167 294.5,376.5 Z"/></g>
<g><path style="opacity:1" fill="#9e9e9e" d="M 306.5,376.5 C 307.675,376.281 308.675,376.614 309.5,377.5C 310.82,381.114 311.987,384.78 313,388.5C 314.269,384.859 315.436,381.192 316.5,377.5C 317.325,376.614 318.325,376.281 319.5,376.5C 318.161,381.515 316.661,386.515 315,391.5C 313.667,394.167 312.333,394.167 311,391.5C 309.59,386.441 308.09,381.441 306.5,376.5 Z"/></g>
<g><path style="opacity:1" fill="#979797" d="M 328.5,376.5 C 332.5,376.5 336.5,376.5 340.5,376.5C 340.5,377.5 340.5,378.5 340.5,379.5C 337.5,379.5 334.5,379.5 331.5,379.5C 331.5,380.833 331.5,382.167 331.5,383.5C 333.5,383.5 335.5,383.5 337.5,383.5C 337.5,384.5 337.5,385.5 337.5,386.5C 335.5,386.5 333.5,386.5 331.5,386.5C 331.5,388.167 331.5,389.833 331.5,391.5C 334.572,391.183 337.572,391.516 340.5,392.5C 336.555,393.491 332.555,393.824 328.5,393.5C 328.5,387.833 328.5,382.167 328.5,376.5 Z"/></g>
<g><path style="opacity:1" fill="#a0a0a0" d="M 349.5,376.5 C 353.584,376.043 357.417,376.71 361,378.5C 361.986,381.742 361.152,384.408 358.5,386.5C 359.5,388.5 360.5,390.5 361.5,392.5C 361,392.833 360.5,393.167 360,393.5C 358.14,391.625 356.64,389.458 355.5,387C 354.552,386.517 353.552,386.351 352.5,386.5C 352.5,388.833 352.5,391.167 352.5,393.5C 351.5,393.5 350.5,393.5 349.5,393.5C 349.5,387.833 349.5,382.167 349.5,376.5 Z"/></g>
<g><path style="opacity:1" fill="#9e9e9e" d="M 373.5,376.5 C 378.709,375.396 381.709,377.396 382.5,382.5C 381.5,382.5 380.5,382.5 379.5,382.5C 379.5,381.5 379.5,380.5 379.5,379.5C 377.5,379.5 375.5,379.5 373.5,379.5C 373.33,380.822 373.663,381.989 374.5,383C 377.196,383.765 379.696,384.932 382,386.5C 382.812,393.001 379.979,395.168 373.5,393C 371.329,391.826 370.329,389.993 370.5,387.5C 371.5,387.5 372.5,387.5 373.5,387.5C 373.408,391.071 375.074,392.238 378.5,391C 379.022,390.439 379.355,389.772 379.5,389C 376.569,386.952 373.736,384.786 371,382.5C 370.333,381.5 370.333,380.5 371,379.5C 372.045,378.627 372.878,377.627 373.5,376.5 Z"/></g>
<g><path style="opacity:1" fill="#979797" d="M 391.5,376.5 C 395.5,376.5 399.5,376.5 403.5,376.5C 403.5,377.5 403.5,378.5 403.5,379.5C 400.5,379.5 397.5,379.5 394.5,379.5C 394.5,380.833 394.5,382.167 394.5,383.5C 396.5,383.5 398.5,383.5 400.5,383.5C 400.5,384.5 400.5,385.5 400.5,386.5C 398.5,386.5 396.5,386.5 394.5,386.5C 394.5,388.167 394.5,389.833 394.5,391.5C 397.572,391.183 400.572,391.516 403.5,392.5C 399.555,393.491 395.555,393.824 391.5,393.5C 391.5,387.833 391.5,382.167 391.5,376.5 Z"/></g>
<g><path style="opacity:1" fill="#101010" d="M 162.5,379.5 C 164.5,379.5 166.5,379.5 168.5,379.5C 168.665,383.182 168.499,386.848 168,390.5C 166.301,391.406 164.467,391.739 162.5,391.5C 162.5,387.5 162.5,383.5 162.5,379.5 Z"/></g>
<g><path style="opacity:1" fill="#131313" d="M 352.5,379.5 C 354.5,379.5 356.5,379.5 358.5,379.5C 358.938,383.908 356.938,385.575 352.5,384.5C 352.5,382.833 352.5,381.167 352.5,379.5 Z"/></g>
</svg>
