<svg id="Layer_1" data-name="Layer 1" xmlns="http://www.w3.org/2000/svg" xmlns:xlink="http://www.w3.org/1999/xlink" viewBox="0 0 766.43 116.6"><defs><style>.cls-1,.cls-2{fill:none;stroke-miterlimit:10;}.cls-1{stroke:#fff;stroke-width:26px;}.cls-2{stroke-width:31px;stroke:url(#linear-gradient);}.cls-3{fill:#ff3f2f;}.cls-4{fill:#6a0a03;}</style><linearGradient id="linear-gradient" x1="18.14" y1="84.43" x2="777.94" y2="84.43" gradientUnits="userSpaceOnUse"><stop offset="0.28" stop-color="#ff3f2f"/><stop offset="1" stop-color="#670902"/></linearGradient></defs><path class="cls-1" d="M837.72,21.1" transform="translate(-15.67 -23.79)"/><path class="cls-2" d="M31.64,90.8c6.85,12.14,24.79,16,38.2,19.78,33.05,9.34,62.14,19.06,105.62,11.75,17.67-3,34.11-10.82,50.47-18.14L273,83.09c37-16.55,75.41-33.42,115.9-32.87,40.11.55,77.7,18.12,116.19,29.4A379,379,0,0,0,641.3,93.7c19.25-1.53,38.49-4.56,56.78-10.74a170.86,170.86,0,0,0,68.64-43.79" transform="translate(-15.67 -23.79)"/><circle class="cls-3" cx="15.97" cy="68.01" r="15.97"/><circle class="cls-4" cx="751.05" cy="15.38" r="15.38"/></svg>